<svg width="800" height="400" viewBox="0 0 800 400" xmlns="http://www.w3.org/2000/svg"><mask id="satori_om-id"><rect x="0" y="0" width="800" height="400" fill="#fff"/></mask><rect x="0" y="0" width="800" height="400" fill="#fff"/><clipPath id="satori_cp-id-0"><rect x="316" y="70" width="169" height="182"/></clipPath><mask id="satori_om-id-0"><rect x="316" y="70" width="169" height="182" fill="#fff"/></mask><image x="316" y="70" width="169" height="182" href="data:image/svg+xml;utf8,%3Csvg  fill=%22none%22 xmlns=%22http://www.w3.org/2000/svg%22 width=%22169%22 height=%22182%22 viewBox=%220 0 169 182%22%3E%3Cg id=%22Layer_1%22 clip-path=%22url(%23clip0_211_4069)%22%3E%3Cpath id=%22Vector%22 d=%22M169 0H0V182H169V0Z%22 fill=%22%23F7BFC9%22%3E%3C/path%3E%3Cpath id=%22Vector_2%22 d=%22M121.887 43.5204L103.345 33.78C103.184 33.6955 102.993 33.6955 102.832 33.78L83.2622 44.22L63.6162 33.78C63.4475 33.6878 63.2558 33.6955 63.0948 33.78L44.6527 43.7741C44.438 43.8971 44.3613 44.0893 44.3613 44.2584V105.907C44.3613 106.114 44.4764 106.299 44.6527 106.399L63.0871 116.185L82.9938 126.679C83.0782 126.717 83.3619 126.756 83.5383 126.664C83.6993 126.564 83.8067 126.387 83.8067 126.187V106.929L103.33 96.4583C103.33 96.4583 103.621 96.343 103.621 95.9663L103.552 75.3631L121.872 65.5228C121.872 65.5228 122.163 65.3844 122.163 65.0385V44.0739C122.163 43.7664 122.033 43.5819 121.887 43.5127V43.5204ZM121.059 64.1313L103.039 54.6523L121.059 44.9426V64.1236V64.1313ZM45.4656 45.1887L63.4475 54.783L45.4656 64.3773V45.1887ZM62.9491 114.863L45.4656 105.576V66.207L62.9491 75.4477V114.863ZM82.7024 125.272L64.0533 115.486V96.958L82.7024 106.929V125.272ZM83.2546 105.968L64.7205 96.0586L83.2776 86.126L101.904 95.9663L83.2622 105.968H83.2546ZM64.0533 95.1591V75.44L82.6794 65.5228L82.6948 85.1189L64.0457 95.1514L64.0533 95.1591ZM83.8067 85.1266L83.7837 65.5228L102.44 75.3631L102.509 95.0438L83.799 85.1266H83.8067ZM102.993 74.4021L83.4923 64.1236C83.3389 64.039 83.1549 64.039 82.9785 64.1236L63.5089 74.4867L46.0943 65.2845L64.8815 55.2596C65.0579 55.1597 65.1729 54.9752 65.1729 54.7753C65.1729 54.5754 65.0579 54.3832 64.8815 54.2833L46.079 44.2508L63.3632 34.8871L83.0092 45.327C83.1702 45.4116 83.3696 45.4116 83.5229 45.327L103.1 34.8871L120.461 44.0124L101.612 54.168C101.428 54.2679 101.321 54.4524 101.321 54.66C101.321 54.8675 101.436 55.0521 101.62 55.1443L120.445 65.0461L103.008 74.4098L102.993 74.4021Z%22 fill=%22%23701C3E%22%3E%3C/path%3E%3Cg id=%22Group%22%3E%3Cpath id=%22Vector_3%22 d=%22M27.3594 143.154V138.48H28.5479V143.169C28.5479 145.414 29.5602 146.398 31.1475 146.398C32.7348 146.398 33.7547 145.414 33.7547 143.169V138.48H34.8819V143.154C34.8819 146.098 33.3636 147.413 31.1245 147.413C28.8854 147.413 27.367 146.098 27.367 143.154H27.3594Z%22 fill=%22%23701C3E%22%3E%3C/path%3E%3Cpath id=%22Vector_4%22 d=%22M41.8299 138.48H44.6902C46.6686 138.48 47.5198 139.625 47.5198 141.032C47.5198 142.162 46.9676 143.115 45.7254 143.454L48.3556 147.174H47.0137L44.5291 143.584H42.9802V147.174H41.8223V138.487L41.8299 138.48ZM44.6902 142.608C45.9861 142.608 46.3772 141.824 46.3772 141.032C46.3772 140.24 45.9861 139.456 44.6902 139.456H42.9802V142.616H44.6902V142.608Z%22 fill=%22%23701C3E%22%3E%3C/path%3E%3Cpath id=%22Vector_5%22 d=%22M57.2425 138.48H57.994L61.7208 147.167H60.5399L59.497 144.737H55.6859L54.6507 147.167H53.5234L57.2502 138.48H57.2425ZM59.1059 143.792L57.5876 140.217L56.0693 143.792H59.1059Z%22 fill=%22%23701C3E%22%3E%3C/path%3E%3Cpath id=%22Vector_6%22 d=%22M67.418 142.823C67.418 140.156 69.3734 138.234 72.0266 138.234C74.6798 138.234 76.6198 140.163 76.6198 142.823C76.6198 145.483 74.6721 147.413 72.0266 147.413C69.381 147.413 67.418 145.483 67.418 142.823ZM75.4236 142.823C75.4236 140.709 74.0126 139.202 72.0342 139.202C70.0558 139.202 68.6219 140.709 68.6219 142.823C68.6219 144.937 70.0328 146.444 72.0342 146.444C74.0357 146.444 75.4236 144.922 75.4236 142.823Z%22 fill=%22%23701C3E%22%3E%3C/path%3E%3Cpath id=%22Vector_7%22 d=%22M83.1602 138.48H84.3181V142.101H89.103V138.48H90.2609V147.167H89.103V143.069H84.3181V147.167H83.1602V138.48Z%22 fill=%22%23701C3E%22%3E%3C/path%3E%3Cpath id=%22Vector_8%22 d=%22M95.4609 149.604V148.781C95.645 148.95 96.0667 149.158 96.3505 149.158C96.9562 149.158 97.2016 148.881 97.2016 147.928V138.487H98.3595V148.059C98.3595 149.189 97.8228 150.042 96.5728 150.042C95.9977 150.042 95.6066 149.765 95.4609 149.611V149.604Z%22 fill=%22%23701C3E%22%3E%3C/path%3E%3Cpath id=%22Vector_9%22 d=%22M108.213 138.48H108.965L112.691 147.167H111.503L110.468 144.737H106.657L105.621 147.167H104.494L108.221 138.48H108.213ZM110.077 143.792L108.558 140.217L107.04 143.792H110.077Z%22 fill=%22%23701C3E%22%3E%3C/path%3E%3Cpath id=%22Vector_10%22 d=%22M118.803 138.48H119.961V147.167H118.803V138.48Z%22 fill=%22%23701C3E%22%3E%3C/path%3E%3Cpath id=%22Vector_11%22 d=%22M126.916 138.48H127.583L132.744 144.953V138.48H133.794V147.167H133.127L127.974 140.694V147.167H126.916V138.48Z%22 fill=%22%23701C3E%22%3E%3C/path%3E%3Cpath id=%22Vector_12%22 d=%22M142.552 144.245H140.352V143.461H142.552V141.263H143.335V143.461H145.528V144.245H143.335V146.444H142.552V144.245Z%22 fill=%22%23701C3E%22%3E%3C/path%3E%3C/g%3E%3C/g%3E%3Cdefs%3E%3CclipPath id=%22clip0_211_4069%22%3E%3Crect width=%22169%22 height=%22182%22 fill=%22white%22%3E%3C/rect%3E%3C/clipPath%3E%3C/defs%3E%3Cscript xmlns=%22%22%3E%3C/script%3E%3C/svg%3E" preserveAspectRatio="none" clip-path="url(#satori_cp-id-0)" mask="url(#satori_om-id-0)"/><mask id="satori_om-id-0-0"><rect x="316" y="70" width="0" height="182" fill="#fff"/></mask><mask id="satori_om-id-0-0-0"><rect x="316" y="70" width="0" height="182" fill="#fff"/></mask><mask id="satori_om-id-0-0-1"><rect x="316" y="70" width="0" height="182" fill="#fff"/></mask><mask id="satori_om-id-0-0-2"><rect x="316" y="70" width="0" height="182" fill="#fff"/></mask><mask id="satori_om-id-0-0-2-0"><rect x="316" y="70" width="0" height="182" fill="#fff"/></mask><mask id="satori_om-id-0-0-2-1"><rect x="316" y="70" width="0" height="182" fill="#fff"/></mask><mask id="satori_om-id-0-0-2-2"><rect x="316" y="70" width="0" height="182" fill="#fff"/></mask><mask id="satori_om-id-0-0-2-3"><rect x="316" y="70" width="0" height="182" fill="#fff"/></mask><mask id="satori_om-id-0-0-2-4"><rect x="316" y="70" width="0" height="182" fill="#fff"/></mask><mask id="satori_om-id-0-0-2-5"><rect x="316" y="70" width="0" height="182" fill="#fff"/></mask><mask id="satori_om-id-0-0-2-6"><rect x="316" y="70" width="0" height="182" fill="#fff"/></mask><mask id="satori_om-id-0-0-2-7"><rect x="316" y="70" width="0" height="182" fill="#fff"/></mask><mask id="satori_om-id-0-0-2-8"><rect x="316" y="70" width="0" height="182" fill="#fff"/></mask><mask id="satori_om-id-0-0-2-9"><rect x="316" y="70" width="0" height="182" fill="#fff"/></mask><mask id="satori_om-id-0-1"><rect x="316" y="70" width="0" height="182" fill="#fff"/></mask><mask id="satori_om-id-0-1-0"><rect x="316" y="70" width="0" height="182" fill="#fff"/></mask><mask id="satori_om-id-0-1-0-0"><rect x="316" y="70" width="0" height="182" fill="#fff"/></mask><mask id="satori_om-id-0-2"><rect x="316" y="70" width="0" height="182" fill="#fff"/></mask><mask id="satori_om-id-1"><rect x="325" y="292" width="151" height="38" fill="#fff"/></mask><path fill="black" d="M341.4 313.4L341.4 298.7L346.3 298.7L346.3 313.8Q346.3 316.3 345.1 318.2Q343.9 320.2 341.7 321.2Q339.6 322.3 336.7 322.3L336.7 322.3Q333.8 322.3 331.6 321.2Q329.4 320.2 328.2 318.2Q327.0 316.3 327.0 313.8L327.0 313.8L327.0 298.7L331.9 298.7L331.9 313.4Q331.9 314.7 332.5 315.7Q333.1 316.8 334.2 317.4Q335.3 318.0 336.7 318.0L336.7 318.0Q338.1 318.0 339.2 317.4Q340.2 316.8 340.8 315.7Q341.4 314.7 341.4 313.4L341.4 313.4ZM355.1 322.0L350.3 322.0L350.3 304.5L355.0 304.5L355.0 307.5L355.1 307.5Q355.6 305.9 356.8 305.1Q357.9 304.2 359.3 304.2L359.3 304.2Q359.7 304.2 360.1 304.3Q360.5 304.3 360.9 304.4L360.9 304.4L360.9 308.7Q360.5 308.6 359.9 308.5Q359.3 308.5 358.8 308.5L358.8 308.5Q357.8 308.5 356.9 308.9Q356.1 309.4 355.6 310.2Q355.1 311.0 355.1 312.1L355.1 312.1L355.1 322.0ZM367.8 322.3L367.8 322.3Q366.2 322.3 364.9 321.7Q363.6 321.1 362.8 320.0Q362.0 318.8 362.0 317.1L362.0 317.1Q362.0 315.6 362.6 314.6Q363.1 313.6 364.0 313.0Q365.0 312.4 366.1 312.1Q367.3 311.8 368.6 311.7L368.6 311.7Q370.1 311.5 371.1 311.4Q372.0 311.3 372.4 311.0Q372.8 310.7 372.8 310.1L372.8 310.1L372.8 310.1Q372.8 309.0 372.2 308.4Q371.5 307.8 370.2 307.8L370.2 307.8Q368.9 307.8 368.2 308.4Q367.4 309.0 367.1 309.8L367.1 309.8L362.7 309.5Q363.0 307.9 364.0 306.7Q365.0 305.5 366.6 304.9Q368.2 304.3 370.3 304.3L370.3 304.3Q371.7 304.3 373.1 304.6Q374.4 305.0 375.4 305.7Q376.5 306.4 377.1 307.5Q377.7 308.6 377.7 310.2L377.7 310.2L377.7 322.0L373.1 322.0L373.1 319.5L372.9 319.5Q372.5 320.3 371.8 321.0Q371.1 321.6 370.1 321.9Q369.1 322.3 367.8 322.3ZM369.2 318.9L369.2 318.9Q370.3 318.9 371.1 318.5Q371.9 318.1 372.4 317.4Q372.9 316.6 372.9 315.7L372.9 315.7L372.9 313.9Q372.6 314.0 372.2 314.1Q371.9 314.2 371.4 314.3Q370.9 314.4 370.4 314.5Q369.9 314.6 369.5 314.6L369.5 314.6Q368.6 314.8 368.0 315.0Q367.4 315.3 367.0 315.8Q366.7 316.2 366.7 316.9L366.7 316.9Q366.7 317.9 367.4 318.4Q368.1 318.9 369.2 318.9ZM389.3 322.3L389.3 322.3Q386.7 322.3 384.7 321.2Q382.8 320.0 381.8 318.0Q380.7 316.0 380.7 313.3L380.7 313.3Q380.7 310.6 381.8 308.6Q382.8 306.5 384.7 305.4Q386.7 304.3 389.3 304.3L389.3 304.3Q392.0 304.3 393.9 305.4Q395.8 306.5 396.9 308.6Q397.9 310.6 397.9 313.3L397.9 313.3Q397.9 316.0 396.9 318.0Q395.8 320.0 393.9 321.2Q392.0 322.3 389.3 322.3ZM389.3 318.5L389.3 318.5Q390.5 318.5 391.4 317.9Q392.2 317.2 392.6 316.0Q393.0 314.8 393.0 313.3L393.0 313.3Q393.0 311.7 392.6 310.5Q392.2 309.3 391.4 308.7Q390.5 308.0 389.3 308.0L389.3 308.0Q388.1 308.0 387.3 308.7Q386.5 309.3 386.1 310.5Q385.6 311.7 385.6 313.3L385.6 313.3Q385.6 314.8 386.1 316.0Q386.5 317.2 387.3 317.9Q388.1 318.5 389.3 318.5ZM405.9 311.9L405.9 311.9L405.9 322.0L401.1 322.0L401.1 298.7L405.8 298.7L405.8 307.6L406.0 307.6Q406.6 306.0 407.9 305.2Q409.2 304.3 411.2 304.3L411.2 304.3Q413.0 304.3 414.4 305.1Q415.7 305.8 416.5 307.3Q417.2 308.8 417.2 310.8L417.2 310.8L417.2 322.0L412.4 322.0L412.4 311.7Q412.4 310.1 411.6 309.2Q410.7 308.3 409.3 308.3L409.3 308.3Q408.3 308.3 407.5 308.7Q406.8 309.1 406.3 309.9Q405.9 310.7 405.9 311.9ZM421.0 322.7L421.0 304.5L425.9 304.5L425.9 322.8Q425.9 324.8 425.1 326.1Q424.3 327.3 422.8 327.9Q421.3 328.5 419.3 328.5L419.3 328.5Q419.0 328.5 418.8 328.5Q418.6 328.5 418.3 328.5L418.3 328.5L418.3 324.7Q418.5 324.7 418.6 324.7Q418.8 324.7 418.9 324.7L418.9 324.7Q420.1 324.7 420.6 324.2Q421.0 323.7 421.0 322.7L421.0 322.7ZM423.5 302.2L423.5 302.2Q422.4 302.2 421.6 301.5Q420.8 300.8 420.8 299.8L420.8 299.8Q420.8 298.8 421.6 298.1Q422.4 297.3 423.5 297.3L423.5 297.3Q424.5 297.3 425.3 298.1Q426.1 298.8 426.1 299.8L426.1 299.8Q426.1 300.8 425.3 301.5Q424.5 302.2 423.5 302.2ZM434.7 322.3L434.7 322.3Q433.1 322.3 431.7 321.7Q430.4 321.1 429.7 320.0Q428.9 318.8 428.9 317.1L428.9 317.1Q428.9 315.6 429.5 314.6Q430.0 313.6 430.9 313.0Q431.8 312.4 433.0 312.1Q434.2 311.8 435.5 311.7L435.5 311.7Q437.0 311.5 437.9 311.4Q438.9 311.3 439.3 311.0Q439.7 310.7 439.7 310.1L439.7 310.1L439.7 310.1Q439.7 309.0 439.0 308.4Q438.4 307.8 437.1 307.8L437.1 307.8Q435.8 307.8 435.0 308.4Q434.3 309.0 434.0 309.8L434.0 309.8L429.5 309.5Q429.9 307.9 430.9 306.7Q431.9 305.5 433.5 304.9Q435.1 304.3 437.1 304.3L437.1 304.3Q438.6 304.3 439.9 304.6Q441.3 305.0 442.3 305.7Q443.4 306.4 444.0 307.5Q444.6 308.6 444.6 310.2L444.6 310.2L444.6 322.0L440.0 322.0L440.0 319.5L439.8 319.5Q439.4 320.3 438.7 321.0Q438.0 321.6 437.0 321.9Q436.0 322.3 434.7 322.3ZM436.1 318.9L436.1 318.9Q437.2 318.9 438.0 318.5Q438.8 318.1 439.3 317.4Q439.7 316.6 439.7 315.7L439.7 315.7L439.7 313.9Q439.5 314.0 439.1 314.1Q438.7 314.2 438.2 314.3Q437.8 314.4 437.3 314.5Q436.8 314.6 436.4 314.6L436.4 314.6Q435.5 314.8 434.9 315.0Q434.3 315.3 433.9 315.8Q433.6 316.2 433.6 316.9L433.6 316.9Q433.6 317.9 434.3 318.4Q435.0 318.9 436.1 318.9ZM453.2 322.0L448.3 322.0L448.3 304.5L453.2 304.5L453.2 322.0ZM450.7 302.2L450.7 302.2Q449.7 302.2 448.9 301.5Q448.1 300.8 448.1 299.8L448.1 299.8Q448.1 298.8 448.9 298.1Q449.7 297.3 450.7 297.3L450.7 297.3Q451.8 297.3 452.6 298.1Q453.4 298.8 453.4 299.8L453.4 299.8Q453.4 300.8 452.6 301.5Q451.8 302.2 450.7 302.2ZM461.9 311.9L461.9 311.9L461.9 322.0L457.0 322.0L457.0 304.5L461.6 304.5L461.6 307.6L461.8 307.6Q462.4 306.1 463.8 305.2Q465.1 304.3 467.1 304.3L467.1 304.3Q468.9 304.3 470.3 305.1Q471.6 305.9 472.4 307.3Q473.1 308.8 473.1 310.8L473.1 310.8L473.1 322.0L468.3 322.0L468.3 311.7Q468.3 310.1 467.5 309.2Q466.6 308.3 465.2 308.3L465.2 308.3Q464.2 308.3 463.4 308.7Q462.7 309.1 462.3 309.9Q461.9 310.7 461.9 311.9Z "/></svg>