<?xml version="1.0" standalone="no"?>
<!DOCTYPE svg PUBLIC "-//W3C//DTD SVG 20010904//EN"
 "http://www.w3.org/TR/2001/REC-SVG-20010904/DTD/svg10.dtd">
<svg version="1.0" xmlns="http://www.w3.org/2000/svg"
 width="828.000000pt" height="946.000000pt" viewBox="0 0 828.000000 946.000000"
 preserveAspectRatio="xMidYMid meet">

<g transform="translate(0.000000,946.000000) scale(0.100000,-0.100000)"
fill="#701C3E" stroke="none">
<path d="M470 5975 l0 -2445 3670 0 3670 0 0 2445 0 2445 -3670 0 -3670 0 0
-2445z m3696 1760 l28 -85 95 0 95 0 -77 -56 c-43 -31 -76 -61 -74 -68 23 -63
48 -148 45 -152 -3 -2 -36 18 -73 45 l-68 50 -31 -21 c-17 -12 -48 -35 -69
-51 -21 -16 -40 -28 -42 -25 -2 2 7 40 20 83 14 44 25 81 25 82 0 1 -34 27
-76 57 l-77 56 96 0 96 0 26 85 c15 47 28 85 30 85 2 0 16 -38 31 -85z m-683
-307 l90 -3 -54 -38 c-102 -71 -95 -54 -64 -147 15 -45 25 -83 23 -85 -2 -2
-32 19 -68 45 -36 27 -69 49 -75 49 -5 0 -39 -22 -75 -49 -36 -26 -66 -47 -68
-45 -2 2 8 40 23 86 14 45 22 85 17 88 -4 3 -37 26 -72 51 l-63 45 90 3 90 3
28 92 29 92 30 -92 30 -92 89 -3z m1488 84 l26 -77 88 -5 89 -5 -72 -52 -71
-52 29 -86 c16 -47 27 -85 24 -85 -3 0 -35 23 -71 50 -36 28 -69 50 -73 50 -4
0 -38 -22 -76 -50 -37 -27 -69 -48 -71 -46 -2 1 8 36 22 76 14 40 25 79 25 85
0 6 -33 35 -72 63 l-73 52 92 0 92 0 27 85 c16 46 30 82 33 79 4 -3 18 -40 32
-82z m-2191 -585 l26 -82 87 -5 88 -5 -69 -50 -69 -50 27 -87 c15 -48 22 -85
16 -81 -6 4 -37 26 -70 50 -32 24 -63 43 -70 43 -6 0 -40 -23 -76 -50 -36 -26
-66 -48 -67 -46 -1 1 9 38 22 81 14 44 25 83 25 87 0 4 -30 29 -67 55 l-68 48
88 3 87 3 27 89 c15 49 29 87 32 84 2 -2 16 -41 31 -87z m2893 -79 l91 -3 -72
-53 c-40 -30 -72 -57 -72 -61 0 -4 11 -41 25 -81 14 -40 23 -75 21 -78 -4 -3
-69 41 -132 89 -6 5 -38 -12 -79 -41 -37 -28 -70 -48 -73 -46 -3 4 22 89 45
152 2 7 -30 36 -72 65 l-77 54 94 3 94 3 29 87 28 87 29 -87 29 -87 92 -3z
m-2989 -808 l90 0 -72 -51 c-40 -28 -72 -54 -72 -58 0 -4 11 -41 25 -81 14
-40 25 -77 25 -82 0 -4 -31 14 -69 42 -38 27 -73 50 -78 50 -5 0 -36 -19 -68
-43 -33 -24 -65 -46 -72 -50 -7 -4 1 32 18 80 16 48 29 87 29 88 0 1 -32 24
-71 51 l-72 49 88 5 88 5 30 90 31 90 30 -92 30 -93 90 0z m3082 95 l28 -84
94 -3 94 -3 -77 -54 c-42 -29 -74 -58 -72 -65 23 -63 48 -148 45 -152 -3 -2
-36 18 -73 46 -41 29 -73 46 -79 41 -63 -48 -128 -92 -132 -89 -2 3 7 38 21
78 14 40 25 77 25 81 0 4 -33 31 -72 61 l-73 53 92 3 92 3 28 84 c15 47 28 85
29 85 2 0 15 -38 30 -85z m-94 -897 l91 -3 -72 -49 c-39 -27 -71 -52 -71 -56
0 -4 11 -40 25 -80 14 -41 24 -78 23 -82 -2 -4 -33 15 -71 42 -37 28 -70 50
-75 50 -4 0 -36 -23 -72 -50 -36 -27 -66 -46 -67 -42 -2 4 8 43 22 87 13 43
23 80 22 80 -1 1 -33 24 -70 51 l-69 49 89 3 90 3 28 92 28 92 30 -92 29 -92
90 -3z m-2891 84 l26 -77 89 -5 89 -5 -72 -52 -72 -52 29 -86 c16 -47 27 -85
25 -85 -3 0 -36 23 -74 51 -78 57 -71 57 -160 -10 -30 -23 -56 -39 -58 -38 -1
2 8 37 22 77 14 40 25 79 25 85 0 6 -33 35 -72 63 l-73 52 92 0 92 0 27 85
c16 46 30 82 33 79 4 -3 18 -40 32 -82z m587 -583 l27 -84 89 -3 89 -3 -69
-50 c-38 -28 -70 -52 -71 -53 -1 -1 9 -37 23 -80 13 -43 22 -81 20 -84 -3 -3
-30 14 -61 37 -30 23 -62 44 -70 47 -9 4 -43 -14 -85 -45 -39 -28 -70 -47 -70
-43 0 5 11 42 25 82 14 40 25 77 25 80 0 4 -31 29 -69 56 l-70 49 87 5 87 5
30 87 c16 48 31 85 33 84 1 -2 15 -41 30 -87z m1600 0 l27 -84 89 -5 89 -5
-72 -49 c-39 -28 -70 -55 -68 -60 26 -71 48 -148 43 -153 -3 -3 -30 13 -61 36
-30 23 -62 44 -70 47 -8 4 -44 -16 -85 -45 -38 -28 -70 -47 -70 -43 0 5 11 42
25 82 14 40 25 76 25 80 0 4 -32 30 -71 58 l-71 51 89 3 88 3 30 87 c16 48 31
85 33 84 2 -2 15 -41 30 -87z m-803 -209 l28 -89 89 -3 90 -3 -69 -49 c-37
-27 -69 -50 -71 -51 -1 -1 9 -39 23 -85 15 -45 25 -83 23 -85 -2 -2 -32 19
-68 45 -36 27 -68 50 -72 50 -5 0 -38 -22 -75 -49 -37 -28 -69 -48 -71 -46 -2
2 8 41 23 86 16 47 23 84 18 88 -5 3 -38 26 -73 51 l-63 45 91 3 90 3 28 89
c15 50 28 90 30 90 1 0 14 -40 29 -90z"/>
<path d="M330 2445 l0 -315 240 0 240 0 0 55 0 55 -175 0 -175 0 0 80 0 80
160 0 160 0 0 55 0 55 -160 0 -160 0 0 70 0 70 170 0 170 0 0 55 0 55 -235 0
-235 0 0 -315z"/>
<path d="M5730 2705 l0 -55 60 0 60 0 0 55 0 55 -60 0 -60 0 0 -55z"/>
<path d="M7040 2705 l0 -55 60 0 60 0 0 55 0 55 -60 0 -60 0 0 -55z"/>
<path d="M1624 2590 c-12 -4 -31 -21 -43 -36 l-21 -27 0 32 c0 31 0 31 -55 31
l-55 0 0 -230 0 -230 59 0 59 0 4 148 c3 159 12 187 57 199 14 3 37 1 51 -4
26 -10 28 -9 44 42 20 66 21 61 -15 74 -37 13 -56 13 -85 1z"/>
<path d="M1923 2586 c-97 -32 -153 -112 -153 -219 0 -124 50 -202 149 -231 67
-20 94 -20 157 -1 184 54 216 333 49 431 -52 30 -143 39 -202 20z m134 -93
c34 -22 53 -70 53 -133 0 -28 -6 -65 -14 -83 -27 -67 -110 -89 -160 -42 -34
31 -46 64 -46 125 0 61 12 94 46 125 32 30 83 33 121 8z"/>
<path d="M2463 2586 c-97 -32 -153 -112 -153 -219 0 -124 50 -202 149 -231 67
-20 94 -20 157 -1 184 54 216 333 49 431 -52 30 -143 39 -202 20z m134 -93
c34 -22 53 -70 53 -133 0 -28 -6 -65 -14 -83 -27 -67 -110 -89 -160 -42 -34
31 -46 64 -46 125 0 61 12 94 46 125 32 30 83 33 121 8z"/>
<path d="M3050 2584 c-19 -8 -45 -25 -57 -36 l-23 -21 0 31 0 32 -55 0 -55 0
0 -315 0 -315 60 0 60 0 0 110 0 110 39 -26 c55 -36 107 -41 163 -16 86 38
123 116 116 248 -4 73 -8 90 -34 127 -33 47 -102 87 -149 87 -16 -1 -46 -8
-65 -16z m92 -103 c27 -24 32 -36 36 -89 6 -83 -4 -130 -35 -158 -49 -45 -121
-25 -149 42 -18 44 -18 138 1 174 33 65 95 78 147 31z"/>
<path d="M3503 2591 c-18 -5 -43 -15 -56 -23 -24 -16 -65 -84 -56 -93 3 -3 26
-9 52 -14 43 -8 47 -7 66 20 18 24 29 29 64 29 52 0 75 -16 79 -54 l3 -29
-107 -27 c-83 -20 -114 -32 -137 -54 -40 -38 -49 -93 -24 -143 24 -49 58 -72
118 -79 43 -5 58 -2 107 24 l56 30 6 -24 c6 -22 11 -24 65 -24 l59 0 -14 38
c-9 24 -13 88 -14 185 0 165 -8 195 -61 223 -36 18 -159 27 -206 15z m152
-293 c-12 -78 -96 -117 -145 -68 -37 37 -18 72 48 89 108 28 105 28 97 -21z"/>
<path d="M4085 2590 c-16 -5 -42 -21 -57 -35 -35 -32 -38 -31 -38 5 0 30 -1
30 -55 30 l-55 0 0 -230 0 -230 59 0 59 0 3 154 c4 138 6 158 25 183 44 59
119 56 141 -7 7 -21 12 -96 12 -182 l1 -148 61 0 61 0 -4 188 c-3 202 -8 222
-62 257 -29 19 -111 27 -151 15z"/>
<path d="M5395 2590 c-16 -5 -42 -21 -57 -35 -35 -32 -38 -31 -38 5 0 30 -1
30 -55 30 l-55 0 0 -230 0 -230 59 0 59 0 3 154 c4 138 6 158 25 183 44 59
119 56 141 -7 7 -21 12 -96 12 -182 l1 -148 61 0 61 0 -4 188 c-3 202 -8 222
-62 257 -29 19 -111 27 -151 15z"/>
<path d="M6103 2586 c-97 -32 -153 -112 -153 -219 0 -124 50 -202 149 -231 67
-20 94 -20 157 -1 184 54 216 333 49 431 -52 30 -143 39 -202 20z m134 -93
c34 -22 53 -70 53 -133 0 -28 -6 -65 -14 -83 -27 -67 -110 -89 -160 -42 -34
31 -46 64 -46 125 0 61 12 94 46 125 32 30 83 33 121 8z"/>
<path d="M6715 2590 c-16 -5 -42 -21 -57 -35 -35 -32 -38 -31 -38 5 0 30 -1
30 -55 30 l-55 0 0 -230 0 -230 59 0 59 0 3 154 c4 138 6 158 25 183 44 59
119 56 141 -7 7 -21 12 -96 12 -182 l1 -148 61 0 61 0 -4 188 c-3 202 -8 222
-62 257 -29 19 -111 27 -151 15z"/>
<path d="M7485 2590 c-16 -5 -42 -21 -57 -35 -35 -32 -38 -31 -38 5 0 30 -1
30 -55 30 l-55 0 0 -230 0 -230 59 0 59 0 3 154 c4 138 6 158 25 183 44 59
119 56 141 -7 7 -21 12 -96 12 -182 l1 -148 61 0 61 0 -4 188 c-3 202 -8 222
-62 257 -29 19 -111 27 -151 15z"/>
<path d="M920 2423 c0 -93 5 -185 10 -205 28 -100 169 -128 260 -51 l30 25 0
-31 0 -31 60 0 60 0 0 230 0 230 -65 0 -65 0 0 -161 0 -161 -29 -29 c-36 -36
-88 -40 -117 -8 -17 19 -19 41 -22 190 l-3 169 -60 0 -59 0 0 -167z"/>
<path d="M4660 2423 c0 -93 5 -185 10 -205 28 -100 169 -128 260 -51 l30 25 0
-31 0 -31 60 0 60 0 0 230 0 230 -65 0 -65 0 0 -161 0 -161 -29 -29 c-36 -36
-88 -40 -117 -8 -17 19 -19 41 -22 190 l-3 169 -60 0 -59 0 0 -167z"/>
<path d="M5730 2360 l0 -230 60 0 60 0 0 230 0 230 -60 0 -60 0 0 -230z"/>
<path d="M7040 2360 l0 -230 60 0 60 0 0 230 0 230 -60 0 -60 0 0 -230z"/>
<path d="M3540 1395 l0 -315 60 0 60 0 0 128 c1 151 10 199 45 230 34 29 85
29 111 1 17 -19 19 -41 22 -190 l4 -169 60 0 60 0 -4 183 c-3 162 -5 186 -24
217 -27 46 -66 65 -136 65 -45 -1 -64 -6 -95 -28 l-38 -27 -3 110 -3 110 -59
0 -60 0 0 -315z"/>
<path d="M4610 1655 l0 -55 60 0 60 0 0 55 0 55 -60 0 -60 0 0 -55z"/>
<path d="M4918 1663 c-57 -33 -58 -35 -58 -78 0 -43 -1 -45 -30 -45 -29 0 -30
-2 -30 -45 0 -43 1 -45 30 -45 l30 0 0 -144 c0 -78 5 -157 11 -174 15 -43 67
-66 132 -58 62 7 70 14 62 58 -6 30 -10 34 -31 30 -48 -9 -54 9 -54 154 l0
134 40 0 40 0 0 45 0 45 -40 0 -39 0 -3 78 -3 78 -57 -33z"/>
<path d="M5218 1663 c-57 -33 -58 -35 -58 -78 0 -43 -1 -45 -30 -45 -29 0 -30
-2 -30 -45 0 -43 1 -45 30 -45 l30 0 0 -144 c0 -78 5 -157 11 -174 15 -43 67
-66 132 -58 62 7 70 14 62 58 -6 30 -10 34 -31 30 -48 -9 -54 9 -54 154 l0
134 40 0 40 0 0 45 0 45 -40 0 -39 0 -3 78 -3 78 -57 -33z"/>
<path d="M1343 1536 c-97 -32 -153 -112 -153 -219 0 -124 50 -202 149 -231 67
-20 94 -20 157 -1 184 54 216 333 49 431 -52 30 -143 39 -202 20z m134 -93
c34 -22 53 -70 53 -133 0 -28 -6 -65 -14 -83 -27 -67 -110 -89 -160 -42 -34
31 -46 64 -46 125 0 61 12 94 46 125 32 30 83 33 121 8z"/>
<path d="M1833 1541 c-79 -20 -119 -75 -110 -150 7 -64 42 -92 148 -120 133
-34 158 -52 120 -90 -15 -15 -34 -21 -67 -21 -40 0 -51 5 -79 34 -31 33 -32
34 -88 24 -61 -11 -63 -16 -25 -71 33 -46 93 -71 178 -71 93 -1 121 6 165 45
44 39 60 92 43 145 -16 49 -61 75 -176 103 -47 11 -91 26 -98 32 -35 29 -2 59
66 59 33 0 48 -6 69 -29 26 -28 29 -29 79 -19 29 6 52 14 52 18 0 18 -48 76
-77 92 -36 22 -149 32 -200 19z"/>
<path d="M2333 1541 c-18 -5 -43 -15 -56 -23 -24 -16 -65 -84 -56 -93 3 -3 26
-9 52 -14 43 -8 47 -7 66 20 18 24 29 29 64 29 52 0 75 -16 79 -54 l3 -29
-107 -27 c-83 -20 -114 -32 -137 -54 -40 -38 -49 -93 -24 -143 24 -49 58 -72
118 -79 43 -5 58 -2 107 24 l56 30 6 -24 c6 -22 11 -24 65 -24 l59 0 -14 38
c-9 24 -13 88 -14 185 0 165 -8 195 -61 223 -36 18 -159 27 -206 15z m152
-293 c-12 -78 -96 -117 -145 -68 -37 37 -18 72 48 89 108 28 105 28 97 -21z"/>
<path d="M2884 1540 c-12 -4 -31 -21 -43 -36 l-21 -27 0 32 c0 31 0 31 -55 31
l-55 0 0 -230 0 -230 59 0 59 0 4 148 c3 159 12 187 57 199 14 3 37 1 51 -4
26 -10 28 -9 44 42 20 66 21 61 -15 74 -37 13 -56 13 -85 1z"/>
<path d="M3153 1541 c-18 -5 -43 -15 -56 -23 -24 -16 -65 -84 -56 -93 3 -3 26
-9 52 -14 43 -8 47 -7 66 20 18 24 29 29 64 29 52 0 75 -16 79 -54 l3 -29
-107 -27 c-83 -20 -114 -32 -137 -54 -40 -38 -49 -93 -24 -143 24 -49 58 -72
118 -79 43 -5 58 -2 107 24 l56 30 6 -24 c6 -22 11 -24 65 -24 l59 0 -14 38
c-9 24 -13 88 -14 185 0 165 -8 195 -61 223 -36 18 -159 27 -206 15z m152
-293 c-12 -78 -96 -117 -145 -68 -37 37 -18 72 48 89 108 28 105 28 97 -21z"/>
<path d="M4213 1536 c-97 -32 -153 -112 -153 -219 0 -124 50 -202 149 -231 67
-20 94 -20 157 -1 184 54 216 333 49 431 -52 30 -143 39 -202 20z m134 -93
c34 -22 53 -70 53 -133 0 -28 -6 -65 -14 -83 -27 -67 -110 -89 -160 -42 -34
31 -46 64 -46 125 0 61 12 94 46 125 32 30 83 33 121 8z"/>
<path d="M5543 1541 c-18 -5 -43 -15 -56 -23 -24 -16 -65 -84 -56 -93 3 -3 26
-9 52 -14 43 -8 47 -7 66 20 18 24 29 29 64 29 52 0 75 -16 79 -54 l3 -29
-107 -27 c-83 -20 -114 -32 -137 -54 -40 -38 -49 -93 -24 -143 24 -49 58 -72
118 -79 43 -5 58 -2 107 24 l56 30 6 -24 c6 -22 11 -24 65 -24 l59 0 -14 38
c-9 24 -13 88 -14 185 0 165 -8 195 -61 223 -36 18 -159 27 -206 15z m152
-293 c-12 -78 -96 -117 -145 -68 -37 37 -18 72 48 89 108 28 105 28 97 -21z"/>
<path d="M6100 1535 c-19 -9 -45 -26 -57 -37 l-23 -21 0 31 0 32 -55 0 -55 0
0 -230 0 -230 59 0 58 0 5 153 c6 188 21 226 95 227 57 0 63 -22 63 -212 l0
-168 60 0 60 0 0 145 c0 189 18 235 93 235 51 0 57 -21 57 -208 l0 -172 60 0
60 0 0 189 c0 179 -1 190 -23 222 -45 66 -145 75 -224 20 -24 -17 -43 -26 -43
-21 0 5 -13 18 -30 30 -39 28 -115 35 -160 15z"/>
<path d="M6803 1541 c-18 -5 -43 -15 -56 -23 -24 -16 -65 -84 -56 -93 3 -3 26
-9 52 -14 43 -8 47 -7 66 20 18 24 29 29 64 29 52 0 75 -16 79 -54 l3 -29
-107 -27 c-83 -20 -114 -32 -137 -54 -40 -38 -49 -93 -24 -143 24 -49 58 -72
118 -79 43 -5 58 -2 107 24 l56 30 6 -24 c6 -22 11 -24 65 -24 l59 0 -14 38
c-9 24 -13 88 -14 185 0 165 -8 195 -61 223 -36 18 -159 27 -206 15z m152
-293 c-12 -78 -96 -117 -145 -68 -37 37 -18 72 48 89 108 28 105 28 97 -21z"/>
<path d="M4610 1310 l0 -230 60 0 60 0 0 230 0 230 -60 0 -60 0 0 -230z"/>
</g>
</svg>
