<?xml version="1.0" standalone="no"?>
<!DOCTYPE svg PUBLIC "-//W3C//DTD SVG 20010904//EN"
 "http://www.w3.org/TR/2001/REC-SVG-20010904/DTD/svg10.dtd">
<svg version="1.0" xmlns="http://www.w3.org/2000/svg"
 width="899.000000pt" height="946.000000pt" viewBox="0 0 899.000000 946.000000"
 preserveAspectRatio="xMidYMid meet">

<g transform="translate(0.000000,946.000000) scale(0.100000,-0.100000)"
fill="#701C3E" stroke="none">
<path d="M830 5975 l0 -2445 3670 0 3670 0 0 2445 0 2445 -3670 0 -3670 0 0
-2445z m3696 1760 l28 -85 95 0 95 0 -77 -56 c-43 -31 -76 -61 -74 -68 23 -63
48 -148 45 -152 -3 -2 -36 18 -73 45 l-68 50 -31 -21 c-17 -12 -48 -35 -69
-51 -21 -16 -40 -28 -42 -25 -2 2 7 40 20 83 14 44 25 81 25 82 0 1 -34 27
-76 57 l-77 56 96 0 96 0 26 85 c15 47 28 85 30 85 2 0 16 -38 31 -85z m-683
-307 l90 -3 -54 -38 c-102 -71 -95 -54 -64 -147 15 -45 25 -83 23 -85 -2 -2
-32 19 -68 45 -36 27 -69 49 -75 49 -5 0 -39 -22 -75 -49 -36 -26 -66 -47 -68
-45 -2 2 8 40 23 86 14 45 22 85 17 88 -4 3 -37 26 -72 51 l-63 45 90 3 90 3
28 92 29 92 30 -92 30 -92 89 -3z m1488 84 l26 -77 88 -5 89 -5 -72 -52 -71
-52 29 -86 c16 -47 27 -85 24 -85 -3 0 -35 23 -71 50 -36 28 -69 50 -73 50 -4
0 -38 -22 -76 -50 -37 -27 -69 -48 -71 -46 -2 1 8 36 22 76 14 40 25 79 25 85
0 6 -33 35 -72 63 l-73 52 92 0 92 0 27 85 c16 46 30 82 33 79 4 -3 18 -40 32
-82z m-2191 -585 l26 -82 87 -5 88 -5 -69 -50 -69 -50 27 -87 c15 -48 22 -85
16 -81 -6 4 -37 26 -70 50 -32 24 -63 43 -70 43 -6 0 -40 -23 -76 -50 -36 -26
-66 -48 -67 -46 -1 1 9 38 22 81 14 44 25 83 25 87 0 4 -30 29 -67 55 l-68 48
88 3 87 3 27 89 c15 49 29 87 32 84 2 -2 16 -41 31 -87z m2893 -79 l91 -3 -72
-53 c-40 -30 -72 -57 -72 -61 0 -4 11 -41 25 -81 14 -40 23 -75 21 -78 -4 -3
-69 41 -132 89 -6 5 -38 -12 -79 -41 -37 -28 -70 -48 -73 -46 -3 4 22 89 45
152 2 7 -30 36 -72 65 l-77 54 94 3 94 3 29 87 28 87 29 -87 29 -87 92 -3z
m-2989 -808 l90 0 -72 -51 c-40 -28 -72 -54 -72 -58 0 -4 11 -41 25 -81 14
-40 25 -77 25 -82 0 -4 -31 14 -69 42 -38 27 -73 50 -78 50 -5 0 -36 -19 -68
-43 -33 -24 -65 -46 -72 -50 -7 -4 1 32 18 80 16 48 29 87 29 88 0 1 -32 24
-71 51 l-72 49 88 5 88 5 30 90 31 90 30 -92 30 -93 90 0z m3082 95 l28 -84
94 -3 94 -3 -77 -54 c-42 -29 -74 -58 -72 -65 23 -63 48 -148 45 -152 -3 -2
-36 18 -73 46 -41 29 -73 46 -79 41 -63 -48 -128 -92 -132 -89 -2 3 7 38 21
78 14 40 25 77 25 81 0 4 -33 31 -72 61 l-73 53 92 3 92 3 28 84 c15 47 28 85
29 85 2 0 15 -38 30 -85z m-94 -897 l91 -3 -72 -49 c-39 -27 -71 -52 -71 -56
0 -4 11 -40 25 -80 14 -41 24 -78 23 -82 -2 -4 -33 15 -71 42 -37 28 -70 50
-75 50 -4 0 -36 -23 -72 -50 -36 -27 -66 -46 -67 -42 -2 4 8 43 22 87 13 43
23 80 22 80 -1 1 -33 24 -70 51 l-69 49 89 3 90 3 28 92 28 92 30 -92 29 -92
90 -3z m-2891 84 l26 -77 89 -5 89 -5 -72 -52 -72 -52 29 -86 c16 -47 27 -85
25 -85 -3 0 -36 23 -74 51 -78 57 -71 57 -160 -10 -30 -23 -56 -39 -58 -38 -1
2 8 37 22 77 14 40 25 79 25 85 0 6 -33 35 -72 63 l-73 52 92 0 92 0 27 85
c16 46 30 82 33 79 4 -3 18 -40 32 -82z m587 -583 l27 -84 89 -3 89 -3 -69
-50 c-38 -28 -70 -52 -71 -53 -1 -1 9 -37 23 -80 13 -43 22 -81 20 -84 -3 -3
-30 14 -61 37 -30 23 -62 44 -70 47 -9 4 -43 -14 -85 -45 -39 -28 -70 -47 -70
-43 0 5 11 42 25 82 14 40 25 77 25 80 0 4 -31 29 -69 56 l-70 49 87 5 87 5
30 87 c16 48 31 85 33 84 1 -2 15 -41 30 -87z m1600 0 l27 -84 89 -5 89 -5
-72 -49 c-39 -28 -70 -55 -68 -60 26 -71 48 -148 43 -153 -3 -3 -30 13 -61 36
-30 23 -62 44 -70 47 -8 4 -44 -16 -85 -45 -38 -28 -70 -47 -70 -43 0 5 11 42
25 82 14 40 25 76 25 80 0 4 -32 30 -71 58 l-71 51 89 3 88 3 30 87 c16 48 31
85 33 84 2 -2 15 -41 30 -87z m-803 -209 l28 -89 89 -3 90 -3 -69 -49 c-37
-27 -69 -50 -71 -51 -1 -1 9 -39 23 -85 15 -45 25 -83 23 -85 -2 -2 -32 19
-68 45 -36 27 -68 50 -72 50 -5 0 -38 -22 -75 -49 -37 -28 -69 -48 -71 -46 -2
2 8 41 23 86 16 47 23 84 18 88 -5 3 -38 26 -73 51 l-63 45 91 3 90 3 28 89
c15 50 28 90 30 90 1 0 14 -40 29 -90z"/>
<path d="M1831 2745 c-57 -16 -90 -36 -133 -82 -70 -74 -97 -224 -63 -351 16
-57 27 -75 74 -123 64 -63 119 -84 215 -81 110 3 199 67 234 169 l10 32 -60
20 c-34 12 -62 20 -63 18 0 -1 -10 -22 -20 -46 -24 -55 -65 -81 -127 -81 -38
0 -54 6 -82 30 -44 39 -59 85 -60 180 0 94 15 140 60 180 64 56 175 36 210
-38 11 -23 20 -31 32 -28 9 3 36 10 60 15 24 5 45 11 47 13 8 8 -34 85 -61
112 -63 62 -176 88 -273 61z"/>
<path d="M3191 2747 c-48 -17 -71 -53 -78 -120 -6 -55 -7 -57 -34 -57 -28 0
-29 -2 -29 -50 0 -49 1 -50 30 -50 l30 0 0 -175 0 -175 65 0 65 0 0 174 0 175
43 3 42 3 3 48 3 47 -45 0 -46 0 0 40 c0 34 4 41 25 46 14 3 36 4 50 2 22 -5
25 -1 33 36 6 29 5 43 -4 48 -23 15 -119 18 -153 5z"/>
<path d="M4757 2744 c-4 -4 -7 -54 -7 -110 l0 -103 -36 24 c-60 41 -158 32
-212 -18 -83 -77 -94 -256 -22 -355 62 -86 180 -99 258 -29 l22 20 0 -26 c0
-26 2 -27 60 -27 l60 0 -2 313 -3 312 -55 3 c-31 2 -59 0 -63 -4z m-58 -268
c38 -20 51 -55 51 -136 0 -63 -3 -73 -29 -102 -23 -26 -36 -32 -65 -31 -69 2
-100 52 -94 156 3 63 7 72 36 98 36 32 60 36 101 15z"/>
<path d="M5780 2640 c0 -60 -2 -110 -5 -110 -2 0 -21 12 -42 26 -33 22 -46 25
-100 22 -43 -3 -72 -10 -90 -24 -129 -96 -117 -356 19 -426 66 -34 141 -24
196 25 l22 20 0 -26 c0 -26 2 -27 60 -27 l60 0 0 315 0 315 -60 0 -60 0 0
-110z m-61 -165 c37 -19 56 -66 55 -138 -1 -88 -54 -146 -119 -129 -44 12 -68
53 -73 122 -5 69 9 111 46 140 29 24 53 25 91 5z"/>
<path d="M6257 2744 c-4 -4 -7 -146 -7 -316 l0 -308 60 0 c58 0 60 1 60 27 l0
26 23 -20 c34 -31 64 -44 106 -45 92 -1 158 50 186 144 41 138 -8 279 -108
317 -51 19 -121 13 -160 -13 l-36 -25 -3 107 -3 107 -55 3 c-31 2 -59 0 -63
-4z m275 -283 c32 -29 33 -31 33 -114 0 -71 -3 -89 -20 -107 -44 -49 -105 -45
-142 10 -18 26 -23 47 -23 99 1 72 15 107 51 127 37 21 66 16 101 -15z"/>
<path d="M2375 2561 c-82 -38 -128 -116 -128 -217 1 -142 94 -236 234 -236
110 0 194 63 225 168 35 120 -20 243 -128 288 -51 22 -153 20 -203 -3z m164
-97 c29 -21 51 -72 51 -119 0 -47 -22 -98 -51 -119 -33 -22 -91 -20 -122 5
-57 44 -61 167 -7 221 33 33 91 38 129 12z"/>
<path d="M4105 2564 c-16 -8 -38 -23 -47 -31 -17 -15 -18 -14 -18 10 0 26 -2
27 -60 27 l-60 0 0 -225 0 -225 65 0 65 0 0 144 c0 80 4 156 10 170 12 33 69
61 104 52 43 -11 50 -39 54 -208 l4 -158 59 0 59 0 0 178 c0 202 -9 234 -70
264 -43 22 -125 23 -165 2z"/>
<path d="M5069 2557 c-66 -35 -101 -98 -107 -191 -10 -162 68 -257 212 -258
71 0 110 13 149 50 33 31 60 79 49 85 -4 3 -33 8 -64 12 -40 5 -58 4 -58 -4 0
-22 -40 -51 -71 -51 -39 0 -89 48 -89 84 l0 26 151 0 151 0 -7 52 c-10 70 -31
127 -58 157 -57 62 -178 80 -258 38z m162 -96 c16 -16 29 -39 29 -50 0 -20 -6
-21 -85 -21 -79 0 -85 1 -85 21 0 30 53 79 85 79 16 0 38 -12 56 -29z"/>
<path d="M3390 2393 c0 -150 3 -184 18 -213 44 -87 184 -98 263 -19 19 19 19
19 19 -11 0 -30 1 -30 55 -30 l55 0 0 225 0 225 -60 0 -60 0 0 -140 c0 -97 -4
-151 -14 -174 -26 -63 -114 -73 -143 -16 -9 17 -13 75 -13 178 l0 152 -60 0
-60 0 0 -177z"/>
<path d="M6740 2563 c0 -5 38 -107 84 -227 46 -121 81 -227 79 -237 -3 -10
-16 -30 -29 -44 -20 -22 -32 -26 -67 -23 l-42 3 4 -45 c1 -25 5 -47 8 -50 2
-3 32 -5 66 -5 69 0 110 17 139 56 17 22 218 550 218 572 0 4 -28 7 -62 5
l-61 -3 -52 -155 -52 -155 -52 158 -53 157 -64 0 c-35 0 -64 -3 -64 -7z"/>
<path d="M2794 2396 c-3 -7 -4 -35 -2 -62 l3 -49 118 -3 117 -3 0 66 0 65
-115 0 c-89 0 -117 -3 -121 -14z"/>
<path d="M720 1385 l0 -315 60 0 60 0 0 140 c0 97 4 151 14 174 26 63 114 73
143 16 9 -17 13 -75 13 -177 l0 -153 60 0 60 0 0 178 c0 148 -3 183 -18 212
-21 44 -72 70 -135 70 -51 0 -78 -10 -114 -43 l-23 -20 0 116 0 117 -60 0 -60
0 0 -315z"/>
<path d="M1987 1693 c-4 -3 -7 -145 -7 -315 l0 -308 240 0 240 0 0 55 0 55
-175 0 -175 0 0 80 0 79 158 3 157 3 3 53 3 52 -160 0 -161 0 0 70 0 70 170 0
170 0 0 55 0 55 -228 0 c-126 0 -232 -3 -235 -7z"/>
<path d="M6260 1478 c0 -123 5 -243 11 -268 24 -104 99 -152 237 -153 136 0
215 46 241 140 6 22 11 139 11 271 l0 233 -62 -3 -63 -3 -5 -238 -5 -239 -28
-24 c-22 -19 -39 -24 -82 -24 -46 0 -60 5 -87 29 l-33 29 -5 234 -5 233 -62 3
-63 3 0 -223z"/>
<path d="M7424 1687 c-3 -8 -4 -34 -2 -58 l3 -44 63 -3 63 -3 -3 58 -3 58 -58
3 c-43 2 -59 -1 -63 -11z"/>
<path d="M488 1647 c-58 -32 -58 -32 -58 -79 0 -47 -1 -48 -31 -48 -30 0 -30
-1 -27 -47 3 -44 5 -48 31 -51 l27 -3 0 -135 c0 -194 18 -227 126 -226 77 1
90 11 86 65 -4 44 -4 44 -40 43 l-37 -1 -3 127 -3 127 38 3 c38 3 38 3 41 51
l3 47 -40 0 -41 0 0 80 c0 44 -3 80 -7 80 -5 -1 -34 -15 -65 -33z"/>
<path d="M1328 1510 c-73 -39 -108 -111 -108 -224 1 -107 46 -186 125 -216 41
-16 146 -14 186 3 40 17 99 80 99 106 0 15 -11 20 -57 26 -42 5 -58 4 -61 -5
-17 -50 -91 -66 -131 -29 -21 20 -41 59 -41 80 0 5 64 9 150 9 l150 0 0 43 c0
140 -83 228 -215 227 -40 -1 -73 -8 -97 -20z m156 -92 c14 -13 28 -35 32 -50
l6 -28 -86 0 c-83 0 -86 1 -86 23 1 25 16 49 45 65 31 18 62 14 89 -10z"/>
<path d="M3239 1501 l-29 -29 0 24 c0 23 -3 24 -60 24 l-60 0 0 -225 0 -225
65 0 65 0 0 138 c0 110 3 144 18 172 16 33 19 35 68 34 l51 -1 17 46 c16 43
16 46 -1 58 -9 7 -37 13 -61 13 -35 0 -49 -6 -73 -29z"/>
<path d="M3533 1505 c-175 -87 -157 -379 27 -434 53 -16 136 -16 176 -1 143
55 193 262 93 384 -65 78 -195 101 -296 51z m166 -90 c71 -36 72 -207 2 -245
-37 -19 -89 -12 -122 18 -27 24 -33 37 -37 85 -10 121 66 189 157 142z"/>
<path d="M4155 1518 c-11 -6 -30 -20 -42 -31 l-23 -20 0 26 c0 26 -2 27 -60
27 l-60 0 0 -315 0 -315 60 0 60 0 0 117 0 116 23 -20 c54 -49 129 -59 195
-25 145 75 144 366 -1 435 -40 19 -122 22 -152 5z m100 -112 c42 -43 47 -162
8 -215 -16 -20 -30 -27 -65 -29 -40 -3 -48 1 -71 27 -49 59 -43 186 11 227 29
22 90 17 117 -10z"/>
<path d="M4595 1514 c-94 -49 -141 -165 -116 -286 25 -114 95 -169 216 -169
78 0 136 27 172 80 34 50 30 58 -34 66 -54 7 -57 6 -80 -24 -39 -50 -107 -40
-138 19 -31 60 -30 60 135 60 l150 0 0 38 c0 93 -47 179 -114 212 -52 25 -147
27 -191 4z m134 -89 c23 -11 51 -57 51 -81 0 -2 -40 -4 -90 -4 -56 0 -90 4
-90 10 0 23 32 72 53 80 32 13 44 12 76 -5z"/>
<path d="M5060 1512 c-34 -17 -80 -73 -80 -98 0 -7 22 -17 49 -23 48 -10 51
-10 80 19 31 31 61 37 105 20 20 -7 26 -17 26 -39 0 -33 3 -31 -110 -55 -41
-9 -90 -25 -108 -36 -82 -50 -76 -182 10 -226 48 -25 131 -20 182 10 42 25 44
25 49 6 4 -17 14 -20 67 -20 56 0 61 2 54 18 -4 9 -11 91 -14 182 -6 192 -15
218 -80 244 -56 22 -184 22 -230 -2z m180 -275 c0 -33 -6 -49 -24 -66 -28 -26
-85 -32 -110 -12 -20 17 -21 65 -1 81 13 11 94 35 128 39 4 1 7 -18 7 -42z"/>
<path d="M5670 1519 c-14 -6 -35 -20 -47 -31 l-23 -21 0 26 c0 26 -2 27 -60
27 l-60 0 0 -225 0 -225 58 0 59 0 6 152 c6 169 16 195 76 212 26 7 37 5 59
-11 l27 -20 3 -167 2 -166 66 0 66 0 -4 183 c-3 203 -12 232 -74 262 -36 17
-116 19 -154 4z"/>
<path d="M7080 1519 c-14 -5 -35 -20 -47 -31 l-23 -21 0 26 c0 26 -2 27 -60
27 l-60 0 0 -225 0 -225 59 0 58 0 5 151 c4 130 8 154 25 177 30 40 77 50 111
25 l27 -20 3 -167 2 -166 65 0 65 0 0 163 c0 183 -7 221 -50 262 -26 25 -40
30 -93 32 -34 2 -73 -2 -87 -8z"/>
<path d="M7763 1505 c-112 -56 -156 -211 -94 -333 52 -102 205 -146 317 -91
177 85 160 376 -25 438 -60 20 -142 14 -198 -14z m166 -89 c15 -8 32 -26 39
-41 15 -33 16 -129 1 -158 -32 -63 -107 -76 -161 -28 -32 28 -33 32 -33 106 0
74 1 78 33 106 36 32 77 37 121 15z"/>
<path d="M8385 1514 c-16 -8 -38 -23 -47 -31 -17 -15 -18 -14 -18 10 0 26 -2
27 -60 27 l-60 0 0 -225 0 -225 65 0 65 0 0 154 c0 146 1 156 23 181 31 36 88
44 116 16 20 -20 21 -31 21 -186 l0 -165 65 0 65 0 0 173 c0 200 -11 241 -73
270 -44 21 -123 22 -162 1z"/>
<path d="M2562 1338 c3 -160 5 -187 23 -215 46 -77 181 -88 253 -21 l22 21 0
-26 c0 -26 2 -27 60 -27 l60 0 0 225 0 225 -65 0 -65 0 0 -156 0 -156 -29 -29
c-35 -35 -81 -39 -111 -9 -18 18 -20 33 -20 185 l0 165 -66 0 -66 0 4 -182z"/>
<path d="M7420 1295 l0 -225 65 0 65 0 0 225 0 225 -65 0 -65 0 0 -225z"/>
</g>
</svg>
